<svg xmlns="http://www.w3.org/2000/svg" width="1080" height="606" viewBox="0 0 1080 606">
  <defs>
    <style>
      .cls-1 {
        fill: #4f46e5;
        fill-rule: evenodd;
      }
    </style>
  </defs>
  <path id="soots_copy_2" data-name="soots copy 2" class="cls-1" d="M1054.3,422.327A306.844,306.844,0,0,1,888.912,583.166Q833.205,605.891,770.7,605.9q-62.526,0-117.645-22.733a312.5,312.5,0,0,1-98.322-64.222q-7.279-6.987-14-14.377v-1.2c-0.166.187-.323,0.382-0.49,0.568A302.516,302.516,0,0,1,487.1,422.327q-23.7-53.412-24.34-114.871h-0.051c-0.019-1.3-.047-2.6-0.047-3.91,0-2.347.035-4.682,0.084-7.011q-1.3-48.779-20.93-82.218-21.046-35.805-56.265-55.128a158.613,158.613,0,0,0-151.746,0,144.516,144.516,0,0,0-56.833,55.128q-21.047,35.805-21.028,89.229,0,51.15,21.028,88.091t56.833,55.7a162.847,162.847,0,0,0,151.746,0q35.219-18.754,56.265-55.7a146.028,146.028,0,0,0,8.056-16.558,348.972,348.972,0,0,0,23.944,77.076,379.448,379.448,0,0,0,43.739,74.618,304.659,304.659,0,0,1-89.948,56.393Q371.9,605.891,309.393,605.9q-62.526,0-117.645-22.733a312.5,312.5,0,0,1-98.322-64.222,302.356,302.356,0,0,1-67.632-96.617Q1.338,367.208,1.356,303.546q0-63.645,24.438-118.782A302.74,302.74,0,0,1,93.426,88.147a321.414,321.414,0,0,1,98.322-64.79Q246.867,0.073,309.393.055q62.5,0,118.213,23.3a312.906,312.906,0,0,1,98.322,64.79q7.437,7.242,14.309,14.907c0.16-.176.33-0.346,0.49-0.522v1.2a308.4,308.4,0,0,1,52.264,81.037q23.716,53.535,24.35,115.093c-0.018,1.241-.093,2.433-0.093,3.689,0,1.226.076,2.4,0.094,3.614,0,0.1-.009.2-0.01,0.3h0.051c-0.014.96-.015,1.925-0.035,2.883q1.314,46.833,20.928,81.3,21.019,36.951,56.834,55.7a162.845,162.845,0,0,0,151.745,0q35.218-18.754,56.265-55.7,21.019-36.924,21.028-88.091,0-53.415-21.028-89.229-21.046-35.805-56.265-55.128a158.611,158.611,0,0,0-151.745,0,144.519,144.519,0,0,0-56.834,55.128,133.117,133.117,0,0,0-8.247,16.67A350.009,350.009,0,0,0,606.3,154.936,387.581,387.581,0,0,0,562.94,80.551a321.042,321.042,0,0,1,90.113-57.194Q708.172,0.073,770.7.055q62.5,0,118.214,23.3a312.9,312.9,0,0,1,98.321,64.79,307.764,307.764,0,0,1,67.067,96.617q24.42,55.146,24.44,118.782Q1078.74,367.217,1054.3,422.327Z"/>
</svg>
